<svg width="16" height="16" viewBox="0 0 16 16" xmlns="http://www.w3.org/2000/svg">
    <g opacity="0.5">
        <path fill-rule="evenodd" clip-rule="evenodd"
              d="M13.3069 2.67206C11.9036 1.26709 10.0373 0.493011 8.04904 0.492188C3.95206 0.492188 0.617706 3.82645 0.616058 7.92453C0.615509 9.23456 0.957733 10.5134 1.60822 11.6406L0.553711 15.4922L4.49405 14.4586C5.57977 15.0508 6.80209 15.3629 8.04602 15.3633H8.04913C12.1457 15.3633 15.4804 12.0287 15.4819 7.93048C15.4828 5.94434 14.7103 4.07693 13.3069 2.67206ZM8.04904 14.108H8.04648C6.93796 14.1075 5.85077 13.8096 4.9021 13.2469L4.67661 13.1129L2.33835 13.7263L2.96246 11.4466L2.81552 11.2128C2.19708 10.2292 1.87051 9.09228 1.87106 7.92499C1.87234 4.51877 4.64383 1.74756 8.05151 1.74756C9.70166 1.74811 11.2528 2.39154 12.4192 3.5593C13.5856 4.72705 14.2276 6.27924 14.227 7.93002C14.2256 11.3365 11.4543 14.108 8.04904 14.108ZM11.4378 9.48102C11.2521 9.388 10.339 8.93884 10.1687 8.87677C9.99857 8.81479 9.8746 8.78393 9.75092 8.96979C9.62704 9.15564 9.27118 9.57403 9.16278 9.69791C9.05438 9.82187 8.94617 9.83743 8.76041 9.74441C8.57465 9.65149 7.97626 9.45529 7.26682 8.82257C6.71475 8.33011 6.34204 7.72192 6.23364 7.53607C6.12543 7.35004 6.23273 7.25922 6.31512 7.15704C6.51617 6.90738 6.7175 6.64563 6.77939 6.52176C6.84137 6.3978 6.81033 6.28931 6.76382 6.19638C6.7175 6.10345 6.34607 5.1893 6.19135 4.81732C6.04047 4.45532 5.88748 4.50421 5.77341 4.49853C5.66519 4.49313 5.54132 4.49203 5.41745 4.49203C5.29367 4.49203 5.09244 4.53845 4.92215 4.72449C4.75195 4.91043 4.27222 5.35968 4.27222 6.27383C4.27222 7.18799 4.93771 8.07111 5.03055 8.19507C5.12338 8.31903 6.34021 10.1949 8.20322 10.9993C8.64633 11.1909 8.99222 11.305 9.26202 11.3906C9.70697 11.532 10.1117 11.512 10.4318 11.4642C10.7887 11.4109 11.5305 11.0149 11.6854 10.5811C11.8401 10.1472 11.8401 9.77545 11.7936 9.69791C11.7473 9.62045 11.6234 9.57403 11.4378 9.48102Z"/>
    </g>
</svg>
